<svg width="200" height="200" viewBox="0 0 200 200" fill="none" xmlns="http://www.w3.org/2000/svg">
<rect x="60" y="160" width="10" height="10" fill="#009DFF" fill-opacity="0.1"/>
<rect x="70" y="160" width="10" height="10" fill="#009DFF" fill-opacity="0.1"/>
<rect x="80" y="160" width="10" height="10" fill="#009DFF" fill-opacity="0.1"/>
<rect x="90" y="160" width="10" height="10" fill="#009DFF" fill-opacity="0.1"/>
<rect x="100" y="160" width="10" height="10" fill="#009DFF" fill-opacity="0.1"/>
<rect x="110" y="160" width="10" height="10" fill="#009DFF" fill-opacity="0.1"/>
<rect x="120" y="160" width="10" height="10" fill="#009DFF" fill-opacity="0.1"/>
<rect x="130" y="160" width="10" height="10" fill="#009DFF" fill-opacity="0.1"/>
<rect x="130" y="150" width="10" height="10" fill="#009DFF" fill-opacity="0.1"/>
<rect x="130" y="140" width="10" height="10" fill="#009DFF" fill-opacity="0.1"/>
<rect x="130" y="130" width="10" height="10" fill="#009DFF" fill-opacity="0.1"/>
<rect x="130" y="120" width="10" height="10" fill="#009DFF" fill-opacity="0.1"/>
<rect x="130" y="110" width="10" height="10" fill="#009DFF" fill-opacity="0.1"/>
<rect x="130" y="100" width="10" height="10" fill="#009DFF" fill-opacity="0.1"/>
<rect x="130" y="90" width="10" height="10" fill="#009DFF" fill-opacity="0.1"/>
<rect x="130" y="80" width="10" height="10" fill="#009DFF" fill-opacity="0.1"/>
<rect x="130" y="70" width="10" height="10" fill="#009DFF" fill-opacity="0.1"/>
<rect x="130" y="60" width="10" height="10" fill="#009DFF" fill-opacity="0.1"/>
<rect x="130" y="50" width="10" height="10" fill="#009DFF" fill-opacity="0.1"/>
<rect x="130" y="40" width="10" height="10" fill="#009DFF" fill-opacity="0.1"/>
<rect x="130" y="30" width="10" height="10" fill="#009DFF" fill-opacity="0.1"/>
<rect x="120" y="30" width="10" height="10" fill="#009DFF" fill-opacity="0.1"/>
<rect x="110" y="30" width="10" height="10" fill="#009DFF" fill-opacity="0.1"/>
<rect x="100" y="30" width="10" height="10" fill="#009DFF" fill-opacity="0.1"/>
<rect x="90" y="30" width="10" height="10" fill="#009DFF" fill-opacity="0.1"/>
<rect x="80" y="30" width="10" height="10" fill="#009DFF" fill-opacity="0.1"/>
<rect x="70" y="30" width="10" height="10" fill="#009DFF" fill-opacity="0.1"/>
<rect x="70" y="40" width="10" height="10" fill="#009DFF" fill-opacity="0.1"/>
<rect x="70" y="50" width="10" height="10" fill="#009DFF" fill-opacity="0.1"/>
<rect x="70" y="60" width="10" height="10" fill="#009DFF" fill-opacity="0.1"/>
<rect x="70" y="70" width="10" height="10" fill="#009DFF" fill-opacity="0.1"/>
<rect x="70" y="80" width="10" height="10" fill="#009DFF" fill-opacity="0.1"/>
<rect x="70" y="90" width="10" height="10" fill="#009DFF" fill-opacity="0.1"/>
<rect x="70" y="100" width="10" height="10" fill="#009DFF" fill-opacity="0.1"/>
<rect x="70" y="110" width="10" height="10" fill="#009DFF" fill-opacity="0.1"/>
<rect x="70" y="120" width="10" height="10" fill="#009DFF" fill-opacity="0.1"/>
<rect x="70" y="130" width="10" height="10" fill="#009DFF" fill-opacity="0.1"/>
<rect x="70" y="140" width="10" height="10" fill="#009DFF" fill-opacity="0.1"/>
<rect x="70" y="150" width="10" height="10" fill="#009DFF" fill-opacity="0.1"/>
<rect x="80" y="150" width="10" height="10" fill="#009DFF" fill-opacity="0.1"/>
<rect x="90" y="150" width="10" height="10" fill="#009DFF" fill-opacity="0.1"/>
<rect x="100" y="150" width="10" height="10" fill="#009DFF" fill-opacity="0.1"/>
<rect x="110" y="150" width="10" height="10" fill="#009DFF" fill-opacity="0.1"/>
<rect x="120" y="150" width="10" height="10" fill="#009DFF" fill-opacity="0.1"/>
<rect x="120" y="140" width="10" height="10" fill="#009DFF" fill-opacity="0.1"/>
<rect x="120" y="130" width="10" height="10" fill="#009DFF" fill-opacity="0.1"/>
<rect x="120" y="120" width="10" height="10" fill="#009DFF" fill-opacity="0.1"/>
<rect x="120" y="110" width="10" height="10" fill="#009DFF" fill-opacity="0.1"/>
<rect x="120" y="100" width="10" height="10" fill="#009DFF" fill-opacity="0.1"/>
<rect x="120" y="90" width="10" height="10" fill="#009DFF" fill-opacity="0.1"/>
<rect x="120" y="80" width="10" height="10" fill="#009DFF" fill-opacity="0.1"/>
<rect x="120" y="70" width="10" height="10" fill="#009DFF" fill-opacity="0.1"/>
<rect x="120" y="60" width="10" height="10" fill="#009DFF" fill-opacity="0.1"/>
<rect x="120" y="50" width="10" height="10" fill="#009DFF" fill-opacity="0.1"/>
<rect x="120" y="40" width="10" height="10" fill="#009DFF" fill-opacity="0.1"/>
<rect x="110" y="40" width="10" height="10" fill="#009DFF" fill-opacity="0.1"/>
<rect x="100" y="40" width="10" height="10" fill="#009DFF" fill-opacity="0.1"/>
<rect x="90" y="40" width="10" height="10" fill="#009DFF" fill-opacity="0.1"/>
<rect x="80" y="40" width="10" height="10" fill="#009DFF" fill-opacity="0.1"/>
<rect x="80" y="50" width="10" height="10" fill="#009DFF" fill-opacity="0.1"/>
<rect x="80" y="60" width="10" height="10" fill="#009DFF" fill-opacity="0.1"/>
<rect x="80" y="70" width="10" height="10" fill="#009DFF" fill-opacity="0.1"/>
<rect x="80" y="80" width="10" height="10" fill="#009DFF" fill-opacity="0.1"/>
<rect x="80" y="90" width="10" height="10" fill="#009DFF" fill-opacity="0.1"/>
<rect x="80" y="100" width="10" height="10" fill="#009DFF" fill-opacity="0.1"/>
<rect x="80" y="110" width="10" height="10" fill="#009DFF" fill-opacity="0.1"/>
<rect x="80" y="120" width="10" height="10" fill="#009DFF" fill-opacity="0.1"/>
<rect x="80" y="130" width="10" height="10" fill="#009DFF" fill-opacity="0.1"/>
<rect x="80" y="140" width="10" height="10" fill="#009DFF" fill-opacity="0.1"/>
<rect x="90" y="140" width="10" height="10" fill="#009DFF" fill-opacity="0.1"/>
<rect x="100" y="140" width="10" height="10" fill="#009DFF" fill-opacity="0.1"/>
<rect x="110" y="140" width="10" height="10" fill="#009DFF" fill-opacity="0.1"/>
<rect x="110" y="130" width="10" height="10" fill="#009DFF" fill-opacity="0.1"/>
<rect x="110" y="120" width="10" height="10" fill="#009DFF" fill-opacity="0.1"/>
<rect x="110" y="110" width="10" height="10" fill="#009DFF" fill-opacity="0.1"/>
<rect x="110" y="100" width="10" height="10" fill="#009DFF" fill-opacity="0.1"/>
<rect x="110" y="90" width="10" height="10" fill="#009DFF" fill-opacity="0.1"/>
<rect x="110" y="80" width="10" height="10" fill="#009DFF" fill-opacity="0.1"/>
<rect x="110" y="70" width="10" height="10" fill="#009DFF" fill-opacity="0.1"/>
<rect x="110" y="60" width="10" height="10" fill="#009DFF" fill-opacity="0.1"/>
<rect x="110" y="50" width="10" height="10" fill="#009DFF" fill-opacity="0.1"/>
<rect x="100" y="50" width="10" height="10" fill="#009DFF" fill-opacity="0.1"/>
<rect x="90" y="50" width="10" height="10" fill="#009DFF" fill-opacity="0.1"/>
<rect x="90" y="60" width="10" height="10" fill="#009DFF" fill-opacity="0.1"/>
<rect x="90" y="70" width="10" height="10" fill="#009DFF" fill-opacity="0.1"/>
<rect x="90" y="80" width="10" height="10" fill="#009DFF" fill-opacity="0.1"/>
<rect x="90" y="90" width="10" height="10" fill="#009DFF" fill-opacity="0.1"/>
<rect x="90" y="100" width="10" height="10" fill="#009DFF" fill-opacity="0.1"/>
<rect x="90" y="110" width="10" height="10" fill="#009DFF" fill-opacity="0.1"/>
<rect x="90" y="120" width="10" height="10" fill="#009DFF" fill-opacity="0.1"/>
<rect x="90" y="130" width="10" height="10" fill="#009DFF" fill-opacity="0.1"/>
<rect x="100" y="130" width="10" height="10" fill="#009DFF" fill-opacity="0.1"/>
<rect x="100" y="120" width="10" height="10" fill="#009DFF" fill-opacity="0.1"/>
<rect x="100" y="110" width="10" height="10" fill="#009DFF" fill-opacity="0.1"/>
<rect x="100" y="100" width="10" height="10" fill="#009DFF" fill-opacity="0.1"/>
<rect x="100" y="90" width="10" height="10" fill="#009DFF" fill-opacity="0.1"/>
<rect x="100" y="80" width="10" height="10" fill="#009DFF" fill-opacity="0.1"/>
<rect x="100" y="70" width="10" height="10" fill="#009DFF" fill-opacity="0.1"/>
<rect x="100" y="60" width="10" height="10" fill="#009DFF" fill-opacity="0.1"/>
<rect x="60" y="150" width="10" height="10" fill="#009DFF" fill-opacity="0.1"/>
<rect x="60" y="140" width="10" height="10" fill="#009DFF" fill-opacity="0.1"/>
<rect x="60" y="130" width="10" height="10" fill="#009DFF" fill-opacity="0.1"/>
<rect x="60" y="120" width="10" height="10" fill="#009DFF" fill-opacity="0.1"/>
<rect x="60" y="110" width="10" height="10" fill="#009DFF" fill-opacity="0.1"/>
<rect x="60" y="100" width="10" height="10" fill="#009DFF" fill-opacity="0.1"/>
<rect x="60" y="90" width="10" height="10" fill="#009DFF" fill-opacity="0.1"/>
<rect x="60" y="80" width="10" height="10" fill="#009DFF" fill-opacity="0.1"/>
<rect x="60" y="70" width="10" height="10" fill="#009DFF" fill-opacity="0.1"/>
<rect x="60" y="60" width="10" height="10" fill="#009DFF" fill-opacity="0.1"/>
<rect x="60" y="50" width="10" height="10" fill="#009DFF" fill-opacity="0.1"/>
<rect x="60" y="40" width="10" height="10" fill="#009DFF" fill-opacity="0.1"/>
<rect x="60" y="30" width="10" height="10" fill="#009DFF" fill-opacity="0.1"/>
<rect x="40" y="30" width="10" height="10" fill="#262636"/>
<rect x="50" y="20" width="10" height="10" fill="#262636"/>
<rect x="60" y="10" width="10" height="10" fill="#262636"/>
<rect x="60" y="35" width="10" height="10" fill="#262636"/>
<rect x="70" y="10" width="10" height="10" fill="#262636"/>
<rect x="70" y="35" width="10" height="10" fill="#262636"/>
<rect x="80" y="10" width="10" height="10" fill="#262636"/>
<rect x="80" y="35" width="10" height="10" fill="#262636"/>
<rect x="90" y="10" width="10" height="10" fill="#262636"/>
<rect x="90" y="35" width="10" height="10" fill="#262636"/>
<rect x="100" y="10" width="10" height="10" fill="#262636"/>
<rect x="100" y="35" width="10" height="10" fill="#262636"/>
<rect x="110" y="10" width="10" height="10" fill="#262636"/>
<rect x="110" y="35" width="10" height="10" fill="#262636"/>
<rect x="120" y="10" width="10" height="10" fill="#262636"/>
<rect x="120" y="35" width="10" height="10" fill="#262636"/>
<rect x="130" y="10" width="10" height="10" fill="#262636"/>
<rect x="130" y="35" width="10" height="10" fill="#262636"/>
<rect x="140" y="20" width="10" height="10" fill="#262636"/>
<rect x="40" y="40" width="10" height="10" fill="#262636"/>
<rect x="40" y="50" width="10" height="10" fill="#262636"/>
<rect x="40" y="70" width="10" height="10" fill="#262636"/>
<rect x="40" y="80" width="10" height="10" fill="#262636"/>
<rect x="40" y="90" width="10" height="10" fill="#262636"/>
<rect x="40" y="100" width="10" height="10" fill="#262636"/>
<rect x="40" y="110" width="10" height="10" fill="#262636"/>
<rect x="40" y="120" width="10" height="10" fill="#262636"/>
<rect x="40" y="130" width="10" height="10" fill="#262636"/>
<rect x="40" y="140" width="10" height="10" fill="#262636"/>
<rect x="40" y="150" width="10" height="10" fill="#262636"/>
<rect x="40" y="160" width="10" height="10" fill="#262636"/>
<rect x="50" y="170" width="10" height="10" fill="#262636"/>
<rect x="70" y="180" width="10" height="10" fill="#262636"/>
<rect x="80" y="180" width="10" height="10" fill="#262636"/>
<rect x="90" y="180" width="10" height="10" fill="#262636"/>
<rect x="100" y="180" width="10" height="10" fill="#262636"/>
<rect x="110" y="180" width="10" height="10" fill="#262636"/>
<rect x="120" y="180" width="10" height="10" fill="#262636"/>
<rect x="130" y="180" width="10" height="10" fill="#262636"/>
<rect x="60" y="180" width="10" height="10" fill="#262636"/>
<rect x="140" y="170" width="10" height="10" fill="#262636"/>
<rect x="40" y="60" width="10" height="10" fill="#262636"/>
<rect x="150" y="30" width="10" height="10" fill="#262636"/>
<rect x="150" y="40" width="10" height="10" fill="#262636"/>
<rect x="150" y="50" width="10" height="10" fill="#262636"/>
<rect x="150" y="70" width="10" height="10" fill="#262636"/>
<rect x="150" y="80" width="10" height="10" fill="#262636"/>
<rect x="150" y="90" width="10" height="10" fill="#262636"/>
<rect x="150" y="100" width="10" height="10" fill="#262636"/>
<rect x="150" y="110" width="10" height="10" fill="#262636"/>
<rect x="150" y="120" width="10" height="10" fill="#262636"/>
<rect x="150" y="130" width="10" height="10" fill="#262636"/>
<rect x="150" y="140" width="10" height="10" fill="#262636"/>
<rect x="150" y="150" width="10" height="10" fill="#262636"/>
<rect x="150" y="160" width="10" height="10" fill="#262636"/>
<rect x="150" y="60" width="10" height="10" fill="#262636"/>
<rect x="80" y="160" width="10" height="10" fill="#00BBFF" fill-opacity="0.7"/>
<rect x="90" y="160" width="10" height="10" fill="#00BBFF" fill-opacity="0.7"/>
<rect x="100" y="160" width="10" height="10" fill="#00BBFF" fill-opacity="0.7"/>
<rect x="110" y="160" width="10" height="10" fill="#00BBFF" fill-opacity="0.7"/>
<rect x="110" y="150" width="10" height="10" fill="#00BBFF" fill-opacity="0.7"/>
<rect x="100" y="150" width="10" height="10" fill="#00BBFF" fill-opacity="0.7"/>
<rect x="90" y="150" width="10" height="10" fill="#00BBFF" fill-opacity="0.7"/>
<rect x="70" y="140" width="10" height="10" fill="#00BBFF" fill-opacity="0.7"/>
<rect x="80" y="140" width="10" height="10" fill="#00BBFF" fill-opacity="0.7"/>
<rect x="90" y="140" width="10" height="10" fill="#00BBFF" fill-opacity="0.7"/>
<rect x="100" y="140" width="10" height="10" fill="#00BBFF" fill-opacity="0.7"/>
<rect x="110" y="140" width="10" height="10" fill="#00BBFF" fill-opacity="0.7"/>
<rect x="120" y="140" width="10" height="10" fill="#00BBFF" fill-opacity="0.7"/>
<rect x="120" y="160" width="10" height="10" fill="#00BBFF" fill-opacity="0.7"/>
<rect x="130" y="160" width="10" height="10" fill="#00BBFF" fill-opacity="0.7"/>
<rect x="70" y="160" width="10" height="10" fill="#00BBFF" fill-opacity="0.7"/>
<rect x="60" y="160" width="10" height="10" fill="#00BBFF" fill-opacity="0.7"/>
<rect x="60" y="150" width="10" height="10" fill="#00BBFF" fill-opacity="0.7"/>
<rect x="70" y="150" width="10" height="10" fill="#00BBFF" fill-opacity="0.7"/>
<rect x="80" y="150" width="10" height="10" fill="#00BBFF" fill-opacity="0.7"/>
<rect x="130" y="150" width="10" height="10" fill="#00BBFF" fill-opacity="0.7"/>
<rect x="120" y="150" width="10" height="10" fill="#00BBFF" fill-opacity="0.7"/>
<rect x="60" y="150" width="10" height="10" fill="#6BD6FF" fill-opacity="0.8"/>
<rect x="70" y="160" width="10" height="10" fill="#6BD6FF" fill-opacity="0.8"/>
<rect x="80" y="160" width="10" height="10" fill="#6BD6FF" fill-opacity="0.8"/>
<rect x="90" y="160" width="10" height="10" fill="#6BD6FF" fill-opacity="0.8"/>
<rect x="100" y="160" width="10" height="10" fill="#6BD6FF" fill-opacity="0.8"/>
<rect x="110" y="150" width="10" height="10" fill="#6BD6FF" fill-opacity="0.8"/>
<rect x="110" y="160" width="10" height="10" fill="#6BD6FF" fill-opacity="0.8"/>
<rect x="120" y="160" width="10" height="10" fill="#6BD6FF" fill-opacity="0.8"/>
<rect x="100" y="150" width="10" height="10" fill="#6BD6FF" fill-opacity="0.8"/>
<rect x="80" y="140" width="10" height="10" fill="#6BD6FF" fill-opacity="0.8"/>
<rect x="70" y="140" width="10" height="10" fill="#6BD6FF" fill-opacity="0.8"/>
<rect x="70" y="150" width="10" height="10" fill="#6BD6FF" fill-opacity="0.8"/>
<rect x="90" y="150" width="10" height="10" fill="#6BD6FF" fill-opacity="0.8"/>
<rect x="110" y="140" width="10" height="10" fill="#6BD6FF" fill-opacity="0.8"/>
<rect x="120" y="140" width="10" height="10" fill="#6BD6FF" fill-opacity="0.8"/>
<rect x="100" y="140" width="10" height="10" fill="#6BD6FF" fill-opacity="0.8"/>
<rect x="90" y="140" width="10" height="10" fill="#6BD6FF" fill-opacity="0.8"/>
<rect x="80" y="150" width="10" height="10" fill="#6BD6FF" fill-opacity="0.8"/>
<rect x="120" y="150" width="10" height="10" fill="#6BD6FF" fill-opacity="0.8"/>
<rect x="130" y="150" width="10" height="10" fill="#6BD6FF" fill-opacity="0.8"/>
<rect x="130" y="55" width="10" height="10" fill="white" fill-opacity="0.8"/>
<rect x="130" y="45" width="10" height="10" fill="white" fill-opacity="0.8"/>
<rect x="120" y="45" width="10" height="10" fill="white" fill-opacity="0.8"/>
<rect x="130" y="65" width="10" height="10" fill="white" fill-opacity="0.8"/>
<rect x="130" y="75" width="10" height="10" fill="white" fill-opacity="0.8"/>
<rect x="130" y="85" width="10" height="10" fill="white" fill-opacity="0.8"/>
<rect x="50" y="40" width="10" height="10" fill="#CEEDFF" fill-opacity="0.3"/>
<rect x="50" y="50" width="10" height="10" fill="#CEEDFF" fill-opacity="0.3"/>
<rect x="50" y="30" width="10" height="10" fill="#CEEDFF" fill-opacity="0.3"/>
<rect x="50" y="60" width="10" height="10" fill="#CEEDFF" fill-opacity="0.3"/>
<rect x="50" y="70" width="10" height="10" fill="#CEEDFF" fill-opacity="0.3"/>
<rect x="50" y="80" width="10" height="10" fill="#CEEDFF" fill-opacity="0.3"/>
<rect x="50" y="90" width="10" height="10" fill="#CEEDFF" fill-opacity="0.3"/>
<rect x="50" y="100" width="10" height="10" fill="#CEEDFF" fill-opacity="0.3"/>
<rect x="50" y="110" width="10" height="10" fill="#CEEDFF" fill-opacity="0.3"/>
<rect x="50" y="120" width="10" height="10" fill="#CEEDFF" fill-opacity="0.3"/>
<rect x="50" y="130" width="10" height="10" fill="#CEEDFF" fill-opacity="0.3"/>
<rect x="50" y="140" width="10" height="10" fill="#CEEDFF" fill-opacity="0.3"/>
<rect x="50" y="150" width="10" height="10" fill="#CEEDFF" fill-opacity="0.3"/>
<rect x="50" y="160" width="10" height="10" fill="#CEEDFF" fill-opacity="0.3"/>
<rect x="60" y="170" width="10" height="10" fill="#CEEDFF" fill-opacity="0.3"/>
<rect x="70" y="170" width="10" height="10" fill="#CEEDFF" fill-opacity="0.3"/>
<rect x="80" y="170" width="10" height="10" fill="#CEEDFF" fill-opacity="0.3"/>
<rect x="90" y="170" width="10" height="10" fill="#CEEDFF" fill-opacity="0.3"/>
<rect x="100" y="170" width="10" height="10" fill="#CEEDFF" fill-opacity="0.3"/>
<rect x="110" y="170" width="10" height="10" fill="#CEEDFF" fill-opacity="0.3"/>
<rect x="120" y="170" width="10" height="10" fill="#CEEDFF" fill-opacity="0.3"/>
<rect x="130" y="170" width="10" height="10" fill="#CEEDFF" fill-opacity="0.3"/>
<rect x="140" y="160" width="10" height="10" fill="#CEEDFF" fill-opacity="0.3"/>
<rect x="140" y="150" width="10" height="10" fill="#CEEDFF" fill-opacity="0.3"/>
<rect x="140" y="140" width="10" height="10" fill="#CEEDFF" fill-opacity="0.3"/>
<rect x="140" y="130" width="10" height="10" fill="#CEEDFF" fill-opacity="0.3"/>
<rect x="140" y="120" width="10" height="10" fill="#CEEDFF" fill-opacity="0.3"/>
<rect x="140" y="110" width="10" height="10" fill="#CEEDFF" fill-opacity="0.3"/>
<rect x="140" y="100" width="10" height="10" fill="#CEEDFF" fill-opacity="0.3"/>
<rect x="140" y="90" width="10" height="10" fill="#CEEDFF" fill-opacity="0.3"/>
<rect x="140" y="80" width="10" height="10" fill="#CEEDFF" fill-opacity="0.3"/>
<rect x="140" y="70" width="10" height="10" fill="#CEEDFF" fill-opacity="0.3"/>
<rect x="140" y="60" width="10" height="10" fill="#CEEDFF" fill-opacity="0.3"/>
<rect x="140" y="50" width="10" height="10" fill="#CEEDFF" fill-opacity="0.3"/>
<rect x="140" y="40" width="10" height="10" fill="#CEEDFF" fill-opacity="0.3"/>
<rect x="140" y="30" width="10" height="10" fill="#CEEDFF" fill-opacity="0.3"/>
<rect x="130" y="20" width="10" height="10" fill="#CEEDFF" fill-opacity="0.3"/>
<rect x="120" y="20" width="10" height="10" fill="#CEEDFF" fill-opacity="0.3"/>
<rect x="110" y="20" width="10" height="10" fill="#CEEDFF" fill-opacity="0.3"/>
<rect x="100" y="20" width="10" height="10" fill="#CEEDFF" fill-opacity="0.3"/>
<rect x="90" y="20" width="10" height="10" fill="#CEEDFF" fill-opacity="0.3"/>
<rect x="80" y="20" width="10" height="10" fill="#CEEDFF" fill-opacity="0.3"/>
<rect x="70" y="20" width="10" height="10" fill="#CEEDFF" fill-opacity="0.3"/>
<rect x="60" y="20" width="10" height="10" fill="#CEEDFF" fill-opacity="0.3"/>
</svg>
