<svg width="251" height="251" viewBox="0 0 251 251" fill="none" xmlns="http://www.w3.org/2000/svg">
<rect x="160.104" y="140.104" width="10" height="10" transform="rotate(-90 160.104 140.104)" fill="#FFCFF5"/>
<rect x="160.104" y="130.104" width="10" height="10" transform="rotate(-90 160.104 130.104)" fill="#FFCFF5"/>
<rect x="170.104" y="140.104" width="10" height="10" transform="rotate(-90 170.104 140.104)" fill="#FFCFF5"/>
<rect x="170.104" y="130.104" width="10" height="10" transform="rotate(-90 170.104 130.104)" fill="#FFCFF5"/>
<rect x="180.104" y="100.104" width="10" height="10" transform="rotate(-90 180.104 100.104)" fill="#FFCFF5"/>
<rect x="160.104" y="150.104" width="10" height="10" transform="rotate(-90 160.104 150.104)" fill="#FFCFF5"/>
<rect x="170.104" y="160.104" width="10" height="10" transform="rotate(-90 170.104 160.104)" fill="#FFCFF5"/>
<rect x="170.104" y="150.104" width="10" height="10" transform="rotate(-90 170.104 150.104)" fill="#FFCFF5"/>
<rect x="180.104" y="140.104" width="10" height="10" transform="rotate(-90 180.104 140.104)" fill="#FFCFF5"/>
<rect x="180.104" y="130.104" width="10" height="10" transform="rotate(-90 180.104 130.104)" fill="#FFCFF5"/>
<rect x="190.104" y="140.104" width="10" height="10" transform="rotate(-90 190.104 140.104)" fill="#FFCFF5"/>
<rect x="190.104" y="130.104" width="10" height="10" transform="rotate(-90 190.104 130.104)" fill="#FFCFF5"/>
<rect x="180.104" y="160.104" width="10" height="10" transform="rotate(-90 180.104 160.104)" fill="#FFCFF5"/>
<rect x="180.104" y="150.104" width="10" height="10" transform="rotate(-90 180.104 150.104)" fill="#FFCFF5"/>
<rect x="190.104" y="160.104" width="10" height="10" transform="rotate(-90 190.104 160.104)" fill="#FFCFF5"/>
<rect x="190.104" y="150.104" width="10" height="10" transform="rotate(-90 190.104 150.104)" fill="#FFCFF5"/>
<rect x="210.104" y="160.104" width="10" height="10" transform="rotate(-90 210.104 160.104)" fill="#FFCFF5"/>
<rect x="170.104" y="100.104" width="10" height="10" transform="rotate(-90 170.104 100.104)" fill="#FFCFF5"/>
<rect x="200.104" y="170.104" width="10" height="10" transform="rotate(-90 200.104 170.104)" fill="#FFCFF5"/>
<rect x="160.104" y="120.104" width="10" height="10" transform="rotate(-90 160.104 120.104)" fill="#FFCFF5"/>
<rect x="160.104" y="110.104" width="10" height="10" transform="rotate(-90 160.104 110.104)" fill="#FFCFF5"/>
<rect x="170.104" y="120.104" width="10" height="10" transform="rotate(-90 170.104 120.104)" fill="#FFCFF5"/>
<rect x="170.104" y="110.104" width="10" height="10" transform="rotate(-90 170.104 110.104)" fill="#FFCFF5"/>
<rect x="210.104" y="100.104" width="10" height="10" transform="rotate(-90 210.104 100.104)" fill="#FFCFF5"/>
<rect x="180.104" y="170.104" width="10" height="10" transform="rotate(-90 180.104 170.104)" fill="#FFCFF5"/>
<rect x="200.104" y="160.104" width="10" height="10" transform="rotate(-90 200.104 160.104)" fill="#FFCFF5"/>
<rect x="190.104" y="170.104" width="10" height="10" transform="rotate(-90 190.104 170.104)" fill="#FFCFF5"/>
<rect x="180.104" y="120.104" width="10" height="10" transform="rotate(-90 180.104 120.104)" fill="#FFCFF5"/>
<rect x="180.104" y="110.104" width="10" height="10" transform="rotate(-90 180.104 110.104)" fill="#FFCFF5"/>
<rect x="190.104" y="120.104" width="10" height="10" transform="rotate(-90 190.104 120.104)" fill="#FFCFF5"/>
<rect x="190.104" y="110.104" width="10" height="10" transform="rotate(-90 190.104 110.104)" fill="#FFCFF5"/>
<rect x="200.104" y="140.104" width="10" height="10" transform="rotate(-90 200.104 140.104)" fill="#FFCFF5"/>
<rect x="200.104" y="130.104" width="10" height="10" transform="rotate(-90 200.104 130.104)" fill="#FFCFF5"/>
<rect x="210.104" y="140.104" width="10" height="10" transform="rotate(-90 210.104 140.104)" fill="#FFCFF5"/>
<rect x="210.104" y="130.104" width="10" height="10" transform="rotate(-90 210.104 130.104)" fill="#FFCFF5"/>
<rect x="200.104" y="150.104" width="10" height="10" transform="rotate(-90 200.104 150.104)" fill="#FFCFF5"/>
<rect x="210.104" y="150.104" width="10" height="10" transform="rotate(-90 210.104 150.104)" fill="#FFCFF5"/>
<rect x="200.104" y="120.104" width="10" height="10" transform="rotate(-90 200.104 120.104)" fill="#FFCFF5"/>
<rect x="200.104" y="110.104" width="10" height="10" transform="rotate(-90 200.104 110.104)" fill="#FFCFF5"/>
<rect x="210.104" y="120.104" width="10" height="10" transform="rotate(-90 210.104 120.104)" fill="#FFCFF5"/>
<rect x="210.104" y="110.104" width="10" height="10" transform="rotate(-90 210.104 110.104)" fill="#FFCFF5"/>
<rect x="220.104" y="140.104" width="10" height="10" transform="rotate(-90 220.104 140.104)" fill="#FFCFF5"/>
<rect x="220.104" y="130.104" width="10" height="10" transform="rotate(-90 220.104 130.104)" fill="#FFCFF5"/>
<rect x="200.104" y="100.104" width="10" height="10" transform="rotate(-90 200.104 100.104)" fill="#FFCFF5"/>
<rect x="230.104" y="140.104" width="10" height="10" transform="rotate(-90 230.104 140.104)" fill="#FFCFF5"/>
<rect x="220.104" y="150.104" width="10" height="10" transform="rotate(-90 220.104 150.104)" fill="#FFCFF5"/>
<rect x="190.104" y="100.104" width="10" height="10" transform="rotate(-90 190.104 100.104)" fill="#FFCFF5"/>
<rect x="180.104" y="90.1035" width="10" height="10" transform="rotate(-90 180.104 90.1035)" fill="#FFCFF5"/>
<rect x="200.104" y="90.1035" width="10" height="10" transform="rotate(-90 200.104 90.1035)" fill="#FFCFF5"/>
<rect x="190.104" y="90.1035" width="10" height="10" transform="rotate(-90 190.104 90.1035)" fill="#FFCFF5"/>
<rect x="220.104" y="120.104" width="10" height="10" transform="rotate(-90 220.104 120.104)" fill="#FFCFF5"/>
<rect x="220.104" y="110.104" width="10" height="10" transform="rotate(-90 220.104 110.104)" fill="#FFCFF5"/>
<rect x="230.104" y="130.104" width="10" height="10" transform="rotate(-90 230.104 130.104)" fill="#FFCFF5"/>
<rect x="230.104" y="120.104" width="10" height="10" transform="rotate(-90 230.104 120.104)" fill="#FFCFF5"/>
<rect x="110.104" y="160.104" width="10" height="10" fill="#FFCFF5"/>
<rect x="120.104" y="160.104" width="10" height="10" fill="#FFCFF5"/>
<rect x="110.104" y="170.104" width="10" height="10" fill="#FFCFF5"/>
<rect x="120.104" y="170.104" width="10" height="10" fill="#FFCFF5"/>
<rect x="150.104" y="180.104" width="10" height="10" fill="#FFCFF5"/>
<rect x="100.104" y="160.104" width="10" height="10" fill="#FFCFF5"/>
<rect x="90.104" y="170.104" width="10" height="10" fill="#FFCFF5"/>
<rect x="100.104" y="170.104" width="10" height="10" fill="#FFCFF5"/>
<rect x="110.104" y="180.104" width="10" height="10" fill="#FFCFF5"/>
<rect x="120.104" y="180.104" width="10" height="10" fill="#FFCFF5"/>
<rect x="110.104" y="190.104" width="10" height="10" fill="#FFCFF5"/>
<rect x="120.104" y="190.104" width="10" height="10" fill="#FFCFF5"/>
<rect x="90.104" y="180.104" width="10" height="10" fill="#FFCFF5"/>
<rect x="100.104" y="180.104" width="10" height="10" fill="#FFCFF5"/>
<rect x="90.104" y="190.104" width="10" height="10" fill="#FFCFF5"/>
<rect x="100.104" y="190.104" width="10" height="10" fill="#FFCFF5"/>
<rect x="90.104" y="210.104" width="10" height="10" fill="#FFCFF5"/>
<rect x="150.104" y="170.104" width="10" height="10" fill="#FFCFF5"/>
<rect x="80.104" y="200.104" width="10" height="10" fill="#FFCFF5"/>
<rect x="130.104" y="160.104" width="10" height="10" fill="#FFCFF5"/>
<rect x="140.104" y="160.104" width="10" height="10" fill="#FFCFF5"/>
<rect x="130.104" y="170.104" width="10" height="10" fill="#FFCFF5"/>
<rect x="140.104" y="170.104" width="10" height="10" fill="#FFCFF5"/>
<rect x="150.104" y="210.104" width="10" height="10" fill="#FFCFF5"/>
<rect x="80.104" y="180.104" width="10" height="10" fill="#FFCFF5"/>
<rect x="90.104" y="200.104" width="10" height="10" fill="#FFCFF5"/>
<rect x="80.104" y="190.104" width="10" height="10" fill="#FFCFF5"/>
<rect x="130.104" y="180.104" width="10" height="10" fill="#FFCFF5"/>
<rect x="140.104" y="180.104" width="10" height="10" fill="#FFCFF5"/>
<rect x="130.104" y="190.104" width="10" height="10" fill="#FFCFF5"/>
<rect x="140.104" y="190.104" width="10" height="10" fill="#FFCFF5"/>
<rect x="110.104" y="200.104" width="10" height="10" fill="#FFCFF5"/>
<rect x="120.104" y="200.104" width="10" height="10" fill="#FFCFF5"/>
<rect x="110.104" y="210.104" width="10" height="10" fill="#FFCFF5"/>
<rect x="120.104" y="210.104" width="10" height="10" fill="#FFCFF5"/>
<rect x="100.104" y="200.104" width="10" height="10" fill="#FFCFF5"/>
<rect x="100.104" y="210.104" width="10" height="10" fill="#FFCFF5"/>
<rect x="130.104" y="200.104" width="10" height="10" fill="#FFCFF5"/>
<rect x="140.104" y="200.104" width="10" height="10" fill="#FFCFF5"/>
<rect x="130.104" y="210.104" width="10" height="10" fill="#FFCFF5"/>
<rect x="140.104" y="210.104" width="10" height="10" fill="#FFCFF5"/>
<rect x="110.104" y="220.104" width="10" height="10" fill="#FFCFF5"/>
<rect x="120.104" y="220.104" width="10" height="10" fill="#FFCFF5"/>
<rect x="150.104" y="200.104" width="10" height="10" fill="#FFCFF5"/>
<rect x="110.104" y="230.104" width="10" height="10" fill="#FFCFF5"/>
<rect x="100.104" y="220.104" width="10" height="10" fill="#FFCFF5"/>
<rect x="150.104" y="190.104" width="10" height="10" fill="#FFCFF5"/>
<rect x="160.104" y="180.104" width="10" height="10" fill="#FFCFF5"/>
<rect x="160.104" y="200.104" width="10" height="10" fill="#FFCFF5"/>
<rect x="160.104" y="190.104" width="10" height="10" fill="#FFCFF5"/>
<rect x="130.104" y="220.104" width="10" height="10" fill="#FFCFF5"/>
<rect x="140.104" y="220.104" width="10" height="10" fill="#FFCFF5"/>
<rect x="120.104" y="230.104" width="10" height="10" fill="#FFCFF5"/>
<rect x="130.104" y="230.104" width="10" height="10" fill="#FFCFF5"/>
<rect x="90.104" y="110.104" width="10" height="10" transform="rotate(90 90.104 110.104)" fill="#FFCFF5"/>
<rect x="90.104" y="120.104" width="10" height="10" transform="rotate(90 90.104 120.104)" fill="#FFCFF5"/>
<rect x="80.104" y="110.104" width="10" height="10" transform="rotate(90 80.104 110.104)" fill="#FFCFF5"/>
<rect x="80.104" y="120.104" width="10" height="10" transform="rotate(90 80.104 120.104)" fill="#FFCFF5"/>
<rect x="70.104" y="150.104" width="10" height="10" transform="rotate(90 70.104 150.104)" fill="#FFCFF5"/>
<rect x="90.104" y="100.104" width="10" height="10" transform="rotate(90 90.104 100.104)" fill="#FFCFF5"/>
<rect x="80.104" y="90.1035" width="10" height="10" transform="rotate(90 80.104 90.1035)" fill="#FFCFF5"/>
<rect x="80.104" y="100.104" width="10" height="10" transform="rotate(90 80.104 100.104)" fill="#FFCFF5"/>
<rect x="70.104" y="110.104" width="10" height="10" transform="rotate(90 70.104 110.104)" fill="#FFCFF5"/>
<rect x="70.104" y="120.104" width="10" height="10" transform="rotate(90 70.104 120.104)" fill="#FFCFF5"/>
<rect x="60.104" y="110.104" width="10" height="10" transform="rotate(90 60.104 110.104)" fill="#FFCFF5"/>
<rect x="60.104" y="120.104" width="10" height="10" transform="rotate(90 60.104 120.104)" fill="#FFCFF5"/>
<rect x="70.104" y="90.1035" width="10" height="10" transform="rotate(90 70.104 90.1035)" fill="#FFCFF5"/>
<rect x="70.104" y="100.104" width="10" height="10" transform="rotate(90 70.104 100.104)" fill="#FFCFF5"/>
<rect x="60.104" y="90.1035" width="10" height="10" transform="rotate(90 60.104 90.1035)" fill="#FFCFF5"/>
<rect x="60.104" y="100.104" width="10" height="10" transform="rotate(90 60.104 100.104)" fill="#FFCFF5"/>
<rect x="40.104" y="90.1035" width="10" height="10" transform="rotate(90 40.104 90.1035)" fill="#FFCFF5"/>
<rect x="80.104" y="150.104" width="10" height="10" transform="rotate(90 80.104 150.104)" fill="#FFCFF5"/>
<rect x="50.104" y="80.1035" width="10" height="10" transform="rotate(90 50.104 80.1035)" fill="#FFCFF5"/>
<rect x="90.104" y="130.104" width="10" height="10" transform="rotate(90 90.104 130.104)" fill="#FFCFF5"/>
<rect x="90.104" y="140.104" width="10" height="10" transform="rotate(90 90.104 140.104)" fill="#FFCFF5"/>
<rect x="80.104" y="130.104" width="10" height="10" transform="rotate(90 80.104 130.104)" fill="#FFCFF5"/>
<rect x="80.104" y="140.104" width="10" height="10" transform="rotate(90 80.104 140.104)" fill="#FFCFF5"/>
<rect x="40.104" y="150.104" width="10" height="10" transform="rotate(90 40.104 150.104)" fill="#FFCFF5"/>
<rect x="70.104" y="80.1035" width="10" height="10" transform="rotate(90 70.104 80.1035)" fill="#FFCFF5"/>
<rect x="50.104" y="90.1035" width="10" height="10" transform="rotate(90 50.104 90.1035)" fill="#FFCFF5"/>
<rect x="60.104" y="80.1035" width="10" height="10" transform="rotate(90 60.104 80.1035)" fill="#FFCFF5"/>
<rect x="70.104" y="130.104" width="10" height="10" transform="rotate(90 70.104 130.104)" fill="#FFCFF5"/>
<rect x="70.104" y="140.104" width="10" height="10" transform="rotate(90 70.104 140.104)" fill="#FFCFF5"/>
<rect x="60.104" y="130.104" width="10" height="10" transform="rotate(90 60.104 130.104)" fill="#FFCFF5"/>
<rect x="60.104" y="140.104" width="10" height="10" transform="rotate(90 60.104 140.104)" fill="#FFCFF5"/>
<rect x="50.104" y="110.104" width="10" height="10" transform="rotate(90 50.104 110.104)" fill="#FFCFF5"/>
<rect x="50.104" y="120.104" width="10" height="10" transform="rotate(90 50.104 120.104)" fill="#FFCFF5"/>
<rect x="40.104" y="110.104" width="10" height="10" transform="rotate(90 40.104 110.104)" fill="#FFCFF5"/>
<rect x="40.104" y="120.104" width="10" height="10" transform="rotate(90 40.104 120.104)" fill="#FFCFF5"/>
<rect x="50.104" y="100.104" width="10" height="10" transform="rotate(90 50.104 100.104)" fill="#FFCFF5"/>
<rect x="40.104" y="100.104" width="10" height="10" transform="rotate(90 40.104 100.104)" fill="#FFCFF5"/>
<rect x="50.104" y="130.104" width="10" height="10" transform="rotate(90 50.104 130.104)" fill="#FFCFF5"/>
<rect x="50.104" y="140.104" width="10" height="10" transform="rotate(90 50.104 140.104)" fill="#FFCFF5"/>
<rect x="40.104" y="130.104" width="10" height="10" transform="rotate(90 40.104 130.104)" fill="#FFCFF5"/>
<rect x="40.104" y="140.104" width="10" height="10" transform="rotate(90 40.104 140.104)" fill="#FFCFF5"/>
<rect x="30.104" y="110.104" width="10" height="10" transform="rotate(90 30.104 110.104)" fill="#FFCFF5"/>
<rect x="30.104" y="120.104" width="10" height="10" transform="rotate(90 30.104 120.104)" fill="#FFCFF5"/>
<rect x="50.104" y="150.104" width="10" height="10" transform="rotate(90 50.104 150.104)" fill="#FFCFF5"/>
<rect x="20.104" y="110.104" width="10" height="10" transform="rotate(90 20.104 110.104)" fill="#FFCFF5"/>
<rect x="30.104" y="100.104" width="10" height="10" transform="rotate(90 30.104 100.104)" fill="#FFCFF5"/>
<rect x="60.104" y="150.104" width="10" height="10" transform="rotate(90 60.104 150.104)" fill="#FFCFF5"/>
<rect x="70.104" y="160.104" width="10" height="10" transform="rotate(90 70.104 160.104)" fill="#FFCFF5"/>
<rect x="50.104" y="160.104" width="10" height="10" transform="rotate(90 50.104 160.104)" fill="#FFCFF5"/>
<rect x="60.104" y="160.104" width="10" height="10" transform="rotate(90 60.104 160.104)" fill="#FFCFF5"/>
<rect x="30.104" y="130.104" width="10" height="10" transform="rotate(90 30.104 130.104)" fill="#FFCFF5"/>
<rect x="30.104" y="140.104" width="10" height="10" transform="rotate(90 30.104 140.104)" fill="#FFCFF5"/>
<rect x="20.104" y="120.104" width="10" height="10" transform="rotate(90 20.104 120.104)" fill="#FFCFF5"/>
<rect x="20.104" y="130.104" width="10" height="10" transform="rotate(90 20.104 130.104)" fill="#FFCFF5"/>
<rect x="140.104" y="90.1035" width="10" height="10" transform="rotate(-180 140.104 90.1035)" fill="#FFCFF5"/>
<rect x="130.104" y="90.1035" width="10" height="10" transform="rotate(-180 130.104 90.1035)" fill="#FFCFF5"/>
<rect x="140.104" y="80.1035" width="10" height="10" transform="rotate(-180 140.104 80.1035)" fill="#FFCFF5"/>
<rect x="130.104" y="80.1035" width="10" height="10" transform="rotate(-180 130.104 80.1035)" fill="#FFCFF5"/>
<rect x="100.104" y="70.1035" width="10" height="10" transform="rotate(-180 100.104 70.1035)" fill="#FFCFF5"/>
<rect x="150.104" y="90.1035" width="10" height="10" transform="rotate(-180 150.104 90.1035)" fill="#FFCFF5"/>
<rect x="160.104" y="80.1035" width="10" height="10" transform="rotate(-180 160.104 80.1035)" fill="#FFCFF5"/>
<rect x="150.104" y="80.1035" width="10" height="10" transform="rotate(-180 150.104 80.1035)" fill="#FFCFF5"/>
<rect x="140.104" y="70.1035" width="10" height="10" transform="rotate(-180 140.104 70.1035)" fill="#FFCFF5"/>
<rect x="130.104" y="70.1035" width="10" height="10" transform="rotate(-180 130.104 70.1035)" fill="#FFCFF5"/>
<rect x="140.104" y="60.1035" width="10" height="10" transform="rotate(-180 140.104 60.1035)" fill="#FFCFF5"/>
<rect x="130.104" y="60.1035" width="10" height="10" transform="rotate(-180 130.104 60.1035)" fill="#FFCFF5"/>
<rect x="160.104" y="70.1035" width="10" height="10" transform="rotate(-180 160.104 70.1035)" fill="#FFCFF5"/>
<rect x="150.104" y="70.1035" width="10" height="10" transform="rotate(-180 150.104 70.1035)" fill="#FFCFF5"/>
<rect x="160.104" y="60.1035" width="10" height="10" transform="rotate(-180 160.104 60.1035)" fill="#FFCFF5"/>
<rect x="150.104" y="60.1035" width="10" height="10" transform="rotate(-180 150.104 60.1035)" fill="#FFCFF5"/>
<rect x="160.104" y="40.1035" width="10" height="10" transform="rotate(-180 160.104 40.1035)" fill="#FFCFF5"/>
<rect x="100.104" y="80.1035" width="10" height="10" transform="rotate(-180 100.104 80.1035)" fill="#FFCFF5"/>
<rect x="170.104" y="50.1035" width="10" height="10" transform="rotate(-180 170.104 50.1035)" fill="#FFCFF5"/>
<rect x="120.104" y="90.1035" width="10" height="10" transform="rotate(-180 120.104 90.1035)" fill="#FFCFF5"/>
<rect x="110.104" y="90.1035" width="10" height="10" transform="rotate(-180 110.104 90.1035)" fill="#FFCFF5"/>
<rect x="120.104" y="80.1035" width="10" height="10" transform="rotate(-180 120.104 80.1035)" fill="#FFCFF5"/>
<rect x="110.104" y="80.1035" width="10" height="10" transform="rotate(-180 110.104 80.1035)" fill="#FFCFF5"/>
<rect x="100.104" y="40.1035" width="10" height="10" transform="rotate(-180 100.104 40.1035)" fill="#FFCFF5"/>
<rect x="170.104" y="70.1035" width="10" height="10" transform="rotate(-180 170.104 70.1035)" fill="#FFCFF5"/>
<rect x="160.104" y="50.1035" width="10" height="10" transform="rotate(-180 160.104 50.1035)" fill="#FFCFF5"/>
<rect x="170.104" y="60.1035" width="10" height="10" transform="rotate(-180 170.104 60.1035)" fill="#FFCFF5"/>
<rect x="120.104" y="70.1035" width="10" height="10" transform="rotate(-180 120.104 70.1035)" fill="#FFCFF5"/>
<rect x="110.104" y="70.1035" width="10" height="10" transform="rotate(-180 110.104 70.1035)" fill="#FFCFF5"/>
<rect x="120.104" y="60.1035" width="10" height="10" transform="rotate(-180 120.104 60.1035)" fill="#FFCFF5"/>
<rect x="110.104" y="60.1035" width="10" height="10" transform="rotate(-180 110.104 60.1035)" fill="#FFCFF5"/>
<rect x="140.104" y="50.1035" width="10" height="10" transform="rotate(-180 140.104 50.1035)" fill="#FFCFF5"/>
<rect x="130.104" y="50.1035" width="10" height="10" transform="rotate(-180 130.104 50.1035)" fill="#FFCFF5"/>
<rect x="140.104" y="40.1035" width="10" height="10" transform="rotate(-180 140.104 40.1035)" fill="#FFCFF5"/>
<rect x="130.104" y="40.1035" width="10" height="10" transform="rotate(-180 130.104 40.1035)" fill="#FFCFF5"/>
<rect x="150.104" y="50.1035" width="10" height="10" transform="rotate(-180 150.104 50.1035)" fill="#FFCFF5"/>
<rect x="150.104" y="40.1035" width="10" height="10" transform="rotate(-180 150.104 40.1035)" fill="#FFCFF5"/>
<rect x="120.104" y="50.1035" width="10" height="10" transform="rotate(-180 120.104 50.1035)" fill="#FFCFF5"/>
<rect x="110.104" y="50.1035" width="10" height="10" transform="rotate(-180 110.104 50.1035)" fill="#FFCFF5"/>
<rect x="120.104" y="40.1035" width="10" height="10" transform="rotate(-180 120.104 40.1035)" fill="#FFCFF5"/>
<rect x="110.104" y="40.1035" width="10" height="10" transform="rotate(-180 110.104 40.1035)" fill="#FFCFF5"/>
<rect x="140.104" y="30.1035" width="10" height="10" transform="rotate(-180 140.104 30.1035)" fill="#FFCFF5"/>
<rect x="130.104" y="30.1035" width="10" height="10" transform="rotate(-180 130.104 30.1035)" fill="#FFCFF5"/>
<rect x="100.104" y="50.1035" width="10" height="10" transform="rotate(-180 100.104 50.1035)" fill="#FFCFF5"/>
<rect x="140.104" y="20.1035" width="10" height="10" transform="rotate(-180 140.104 20.1035)" fill="#FFCFF5"/>
<rect x="150.104" y="30.1035" width="10" height="10" transform="rotate(-180 150.104 30.1035)" fill="#FFCFF5"/>
<rect x="100.104" y="60.1035" width="10" height="10" transform="rotate(-180 100.104 60.1035)" fill="#FFCFF5"/>
<rect x="90.104" y="70.1035" width="10" height="10" transform="rotate(-180 90.104 70.1035)" fill="#FFCFF5"/>
<rect x="90.104" y="50.1035" width="10" height="10" transform="rotate(-180 90.104 50.1035)" fill="#FFCFF5"/>
<rect x="90.104" y="60.1035" width="10" height="10" transform="rotate(-180 90.104 60.1035)" fill="#FFCFF5"/>
<rect x="120.104" y="30.1035" width="10" height="10" transform="rotate(-180 120.104 30.1035)" fill="#FFCFF5"/>
<rect x="110.104" y="30.1035" width="10" height="10" transform="rotate(-180 110.104 30.1035)" fill="#FFCFF5"/>
<rect x="130.104" y="20.1035" width="10" height="10" transform="rotate(-180 130.104 20.1035)" fill="#FFCFF5"/>
<rect x="120.104" y="20.1035" width="10" height="10" transform="rotate(-180 120.104 20.1035)" fill="#FFCFF5"/>
<rect x="110.104" y="150.104" width="10" height="10" fill="#FFE279"/>
<rect x="120.104" y="150.104" width="10" height="10" fill="#FFE279"/>
<rect x="130.104" y="150.104" width="10" height="10" fill="#FFE279"/>
<rect x="110.104" y="100.104" width="10" height="10" fill="#FFE279"/>
<rect x="100.104" y="100.104" width="10" height="10" fill="#FFE279"/>
<rect x="110.104" y="90.1035" width="10" height="10" fill="#FFE279"/>
<rect x="110.104" y="110.104" width="10" height="10" fill="#FFE279"/>
<rect x="100.104" y="110.104" width="10" height="10" fill="#FFE279"/>
<rect x="120.104" y="90.1035" width="10" height="10" fill="#FFE279"/>
<rect x="130.104" y="90.1035" width="10" height="10" fill="#FFE279"/>
<rect x="110.104" y="120.104" width="10" height="10" fill="#FFE279"/>
<rect x="100.104" y="120.104" width="10" height="10" fill="#FFE279"/>
<rect x="90.104" y="110.104" width="10" height="10" fill="#FFE279"/>
<rect x="110.104" y="130.104" width="10" height="10" fill="#FFE279"/>
<rect x="100.104" y="130.104" width="10" height="10" fill="#FFE279"/>
<rect x="90.104" y="120.104" width="10" height="10" fill="#FFE279"/>
<rect x="90.104" y="130.104" width="10" height="10" fill="#FFE279"/>
<rect x="110.104" y="140.104" width="10" height="10" fill="#FFE279"/>
<rect x="100.104" y="140.104" width="10" height="10" fill="#FFE279"/>
<rect x="120.104" y="100.104" width="10" height="10" fill="#FFE279"/>
<rect x="140.104" y="100.104" width="10" height="10" fill="#FFE279"/>
<rect x="130.104" y="100.104" width="10" height="10" fill="#FFE279"/>
<rect x="120.104" y="110.104" width="10" height="10" fill="#FFE279"/>
<rect x="140.104" y="110.104" width="10" height="10" fill="#FFE279"/>
<rect x="130.104" y="110.104" width="10" height="10" fill="#FFE279"/>
<rect x="120.104" y="120.104" width="10" height="10" fill="#FFE279"/>
<rect x="140.104" y="120.104" width="10" height="10" fill="#FFE279"/>
<rect x="130.104" y="120.104" width="10" height="10" fill="#FFE279"/>
<rect x="120.104" y="130.104" width="10" height="10" fill="#FFE279"/>
<rect x="140.104" y="130.104" width="10" height="10" fill="#FFE279"/>
<rect x="150.104" y="110.104" width="10" height="10" fill="#FFE279"/>
<rect x="150.104" y="120.104" width="10" height="10" fill="#FFE279"/>
<rect x="150.104" y="130.104" width="10" height="10" fill="#FFE279"/>
<rect x="130.104" y="130.104" width="10" height="10" fill="#FFE279"/>
<rect x="120.104" y="140.104" width="10" height="10" fill="#FFE279"/>
<rect x="140.104" y="140.104" width="10" height="10" fill="#FFE279"/>
<rect x="130.104" y="140.104" width="10" height="10" fill="#FFE279"/>
<rect x="140.104" y="150.104" width="10" height="10" fill="#FFCA0C"/>
<rect x="110.104" y="160.104" width="10" height="10" fill="#FFCA0C"/>
<rect x="120.104" y="160.104" width="10" height="10" fill="#FFCA0C"/>
<rect x="130.104" y="160.104" width="10" height="10" fill="#FFCA0C"/>
<rect x="80.104" y="130.104" width="10" height="10" fill="#FFCA0C"/>
<rect x="80.104" y="120.104" width="10" height="10" fill="#FFCA0C"/>
<rect x="80.104" y="110.104" width="10" height="10" fill="#FFCA0C"/>
<rect x="110.104" y="80.1035" width="10" height="10" fill="#FFCA0C"/>
<rect x="120.104" y="80.1035" width="10" height="10" fill="#FFCA0C"/>
<rect x="130.104" y="80.1035" width="10" height="10" fill="#FFCA0C"/>
<rect x="160.104" y="110.104" width="10" height="10" fill="#FFCA0C"/>
<rect x="160.104" y="120.104" width="10" height="10" fill="#FFCA0C"/>
<rect x="160.104" y="130.104" width="10" height="10" fill="#FFCA0C"/>
<rect x="100.104" y="150.104" width="10" height="10" fill="#FFCA0C"/>
<rect x="90.104" y="140.104" width="10" height="10" fill="#FFCA0C"/>
<rect x="90.104" y="150.104" width="10" height="10" fill="#FFCA0C"/>
<rect x="150.104" y="150.104" width="10" height="10" fill="#FFCA0C"/>
<rect x="150.104" y="90.1035" width="10" height="10" fill="#FFCA0C"/>
<rect x="90.104" y="90.1035" width="10" height="10" fill="#FFCA0C"/>
<rect x="90.104" y="100.104" width="10" height="10" fill="#FFCA0C"/>
<rect x="100.104" y="90.1035" width="10" height="10" fill="#FFCA0C"/>
<rect x="150.104" y="140.104" width="10" height="10" fill="#FFCA0C"/>
<rect x="150.104" y="100.104" width="10" height="10" fill="#FFCA0C"/>
<rect x="140.104" y="90.1035" width="10" height="10" fill="#FFCA0C"/>
<rect x="140.104" y="110.104" width="10" height="10" fill="#FFF1C0"/>
<rect x="130.104" y="110.104" width="10" height="10" fill="#FFF1C0"/>
<rect x="130.104" y="100.104" width="10" height="10" fill="#FFF1C0"/>
<rect x="120.104" y="100.104" width="10" height="10" fill="#FFF1C0"/>
<rect x="140.104" y="120.104" width="10" height="10" fill="#FFF1C0"/>
<rect x="140.104" y="20.1035" width="10" height="10" transform="rotate(-180 140.104 20.1035)" fill="#EF93DB"/>
<rect x="150.104" y="30.1035" width="10" height="10" transform="rotate(-180 150.104 30.1035)" fill="#EF93DB"/>
<rect x="160.104" y="40.1035" width="10" height="10" transform="rotate(-180 160.104 40.1035)" fill="#EF93DB"/>
<rect x="170.104" y="50.1035" width="10" height="10" transform="rotate(-180 170.104 50.1035)" fill="#EF93DB"/>
<rect x="170.104" y="60.1035" width="10" height="10" transform="rotate(-180 170.104 60.1035)" fill="#EF93DB"/>
<rect x="170.104" y="70.1035" width="10" height="10" transform="rotate(-180 170.104 70.1035)" fill="#EF93DB"/>
<rect x="160.104" y="80.1035" width="10" height="10" transform="rotate(-180 160.104 80.1035)" fill="#EF93DB"/>
<rect x="180.104" y="100.104" width="10" height="10" transform="rotate(-180 180.104 100.104)" fill="#EF93DB"/>
<rect x="190.104" y="90.1035" width="10" height="10" transform="rotate(-180 190.104 90.1035)" fill="#EF93DB"/>
<rect x="200.104" y="90.1035" width="10" height="10" transform="rotate(-180 200.104 90.1035)" fill="#EF93DB"/>
<rect x="210.104" y="90.1035" width="10" height="10" transform="rotate(-180 210.104 90.1035)" fill="#EF93DB"/>
<rect x="220.104" y="100.104" width="10" height="10" transform="rotate(-180 220.104 100.104)" fill="#EF93DB"/>
<rect x="230.104" y="110.104" width="10" height="10" transform="rotate(-180 230.104 110.104)" fill="#EF93DB"/>
<rect x="240.104" y="120.104" width="10" height="10" transform="rotate(-180 240.104 120.104)" fill="#EF93DB"/>
<rect x="240.104" y="130.104" width="10" height="10" transform="rotate(-180 240.104 130.104)" fill="#EF93DB"/>
<rect x="240.104" y="140.104" width="10" height="10" transform="rotate(-180 240.104 140.104)" fill="#EF93DB"/>
<rect x="230.104" y="150.104" width="10" height="10" transform="rotate(-180 230.104 150.104)" fill="#EF93DB"/>
<rect x="220.104" y="160.104" width="10" height="10" transform="rotate(-180 220.104 160.104)" fill="#EF93DB"/>
<rect x="210.104" y="170.104" width="10" height="10" transform="rotate(-180 210.104 170.104)" fill="#EF93DB"/>
<rect x="200.104" y="170.104" width="10" height="10" transform="rotate(-180 200.104 170.104)" fill="#EF93DB"/>
<rect x="190.104" y="170.104" width="10" height="10" transform="rotate(-180 190.104 170.104)" fill="#EF93DB"/>
<rect x="180.104" y="160.104" width="10" height="10" transform="rotate(-180 180.104 160.104)" fill="#EF93DB"/>
<rect x="170.104" y="160.104" width="10" height="10" transform="rotate(-180 170.104 160.104)" fill="#EF93DB"/>
<rect x="160.104" y="170.104" width="10" height="10" transform="rotate(-180 160.104 170.104)" fill="#EF93DB"/>
<rect x="160.104" y="180.104" width="10" height="10" transform="rotate(-180 160.104 180.104)" fill="#EF93DB"/>
<rect x="170.104" y="210.104" width="10" height="10" transform="rotate(-180 170.104 210.104)" fill="#EF93DB"/>
<rect x="160.104" y="220.104" width="10" height="10" transform="rotate(-180 160.104 220.104)" fill="#EF93DB"/>
<rect x="150.104" y="230.104" width="10" height="10" transform="rotate(-180 150.104 230.104)" fill="#EF93DB"/>
<rect x="140.104" y="240.104" width="10" height="10" transform="rotate(-180 140.104 240.104)" fill="#EF93DB"/>
<rect x="170.104" y="190.104" width="10" height="10" transform="rotate(-180 170.104 190.104)" fill="#EF93DB"/>
<rect x="170.104" y="200.104" width="10" height="10" transform="rotate(-180 170.104 200.104)" fill="#EF93DB"/>
<rect x="160.104" y="90.1035" width="10" height="10" transform="rotate(-180 160.104 90.1035)" fill="#EF93DB"/>
<rect x="170.104" y="100.104" width="10" height="10" transform="rotate(-180 170.104 100.104)" fill="#EF93DB"/>
<rect x="170.104" y="100.104" width="10" height="10" transform="rotate(-180 170.104 100.104)" fill="#EF93DB"/>
<rect x="110.104" y="230.104" width="10" height="10" fill="#EF93DB"/>
<rect x="100.104" y="220.104" width="10" height="10" fill="#EF93DB"/>
<rect x="90.104" y="210.104" width="10" height="10" fill="#EF93DB"/>
<rect x="80.104" y="200.104" width="10" height="10" fill="#EF93DB"/>
<rect x="80.104" y="190.104" width="10" height="10" fill="#EF93DB"/>
<rect x="80.104" y="180.104" width="10" height="10" fill="#EF93DB"/>
<rect x="90.104" y="170.104" width="10" height="10" fill="#EF93DB"/>
<rect x="70.104" y="150.104" width="10" height="10" fill="#EF93DB"/>
<rect x="60.104" y="160.104" width="10" height="10" fill="#EF93DB"/>
<rect x="50.104" y="160.104" width="10" height="10" fill="#EF93DB"/>
<rect x="40.104" y="160.104" width="10" height="10" fill="#EF93DB"/>
<rect x="30.104" y="150.104" width="10" height="10" fill="#EF93DB"/>
<rect x="20.104" y="140.104" width="10" height="10" fill="#EF93DB"/>
<rect x="10.104" y="130.104" width="10" height="10" fill="#EF93DB"/>
<rect x="10.104" y="120.104" width="10" height="10" fill="#EF93DB"/>
<rect x="10.104" y="110.104" width="10" height="10" fill="#EF93DB"/>
<rect x="20.104" y="100.104" width="10" height="10" fill="#EF93DB"/>
<rect x="30.104" y="90.1035" width="10" height="10" fill="#EF93DB"/>
<rect x="40.104" y="80.1035" width="10" height="10" fill="#EF93DB"/>
<rect x="50.104" y="80.1035" width="10" height="10" fill="#EF93DB"/>
<rect x="60.104" y="80.1035" width="10" height="10" fill="#EF93DB"/>
<rect x="70.104" y="90.1035" width="10" height="10" fill="#EF93DB"/>
<rect x="80.104" y="90.1035" width="10" height="10" fill="#EF93DB"/>
<rect x="90.104" y="80.1035" width="10" height="10" fill="#EF93DB"/>
<rect x="90.104" y="70.1035" width="10" height="10" fill="#EF93DB"/>
<rect x="80.104" y="40.1035" width="10" height="10" fill="#EF93DB"/>
<rect x="90.104" y="30.1035" width="10" height="10" fill="#EF93DB"/>
<rect x="100.104" y="20.1035" width="10" height="10" fill="#EF93DB"/>
<rect x="110.104" y="10.1035" width="10" height="10" fill="#EF93DB"/>
<rect x="80.104" y="60.1035" width="10" height="10" fill="#EF93DB"/>
<rect x="80.104" y="50.1035" width="10" height="10" fill="#EF93DB"/>
<rect x="90.104" y="160.104" width="10" height="10" fill="#EF93DB"/>
<rect x="80.104" y="150.104" width="10" height="10" fill="#EF93DB"/>
<rect x="120.104" y="230.104" width="10" height="10" fill="#EF93DB"/>
<rect x="120.104" y="10.1035" width="10" height="10" fill="#EF93DB"/>
<rect x="140.104" y="40.1035" width="10" height="10" fill="#FFF3FC"/>
<rect x="140.104" y="40.1035" width="10" height="10" fill="#FFF3FC"/>
<rect x="130.104" y="30.1035" width="10" height="10" fill="#FFF3FC"/>
<rect x="70.104" y="100.104" width="10" height="10" fill="#FFF3FC"/>
<rect x="60.104" y="90.1035" width="10" height="10" fill="#FFF3FC"/>
<rect x="50.104" y="90.1035" width="10" height="10" fill="#FFF3FC"/>
<rect x="210.104" y="100.104" width="10" height="10" fill="#FFF3FC"/>
<rect x="150.104" y="180.104" width="10" height="10" fill="#FFF3FC"/>
<rect x="150.104" y="190.104" width="10" height="10" fill="#FFF3FC"/>
<rect x="140.104" y="200.104" width="10" height="10" fill="#FFF3FC"/>
<rect x="200.104" y="90.1035" width="10" height="10" fill="#FFF3FC"/>
<rect x="190.104" y="90.1035" width="10" height="10" fill="#FFF3FC"/>
<rect x="120.104" y="30.1035" width="10" height="10" fill="#FFF3FC"/>
</svg>
