<svg width="110" height="120" viewBox="0 0 110 120" fill="none" xmlns="http://www.w3.org/2000/svg">
<g clip-path="url(#clip0_26_651)">
<path d="M40 10H50V20H40V10Z" fill="#FFFCFC"/>
<path d="M30 20H40V30H30V20Z" fill="#FFFCFC"/>
<path d="M20 30H30V40H20V30Z" fill="#FFFCFC"/>
<path d="M10 40H20V50H10V40Z" fill="#FFFCFC"/>
<path d="M0 50H10V60H0V50Z" fill="#FFFCFC"/>
<path d="M0 60H10V70H0V60Z" fill="#FFFCFC"/>
<path d="M0 70H10V80H0V70Z" fill="#FFFCFC"/>
<path d="M0 80H10V90H0V80Z" fill="#FFFCFC"/>
<path d="M10 90H20V100H10V90Z" fill="#FFFCFC"/>
<path d="M20 100H30V110H20V100Z" fill="#FFFCFC"/>
<path d="M30 110H40V120H30V110Z" fill="#FFFCFC"/>
<path d="M40 110H50V120H40V110Z" fill="#FFFCFC"/>
<path d="M60 110H70V120H60V110Z" fill="#FFFCFC"/>
<path d="M50 110H60V120H50V110Z" fill="#FFFCFC"/>
<path d="M70 110H80V120H70V110Z" fill="#FFFCFC"/>
<path d="M80 100H90V110H80V100Z" fill="#FFFCFC"/>
<path d="M90 90H100V100H90V90Z" fill="#FFFCFC"/>
<path d="M100 80H110V90H100V80Z" fill="#FFFCFC"/>
<path d="M100 60H110V70H100V60Z" fill="#FFFCFC"/>
<path d="M100 70H110V80H100V70Z" fill="#FFFCFC"/>
<path d="M70 20H80V30H70V20Z" fill="#FFFCFC"/>
<path d="M80 30H90V40H80V30Z" fill="#FFFCFC"/>
<path d="M90 40H100V50H90V40Z" fill="#FFFCFC"/>
<path d="M100 50H110V60H100V50Z" fill="#FFFCFC"/>
<path d="M60 10H70V20H60V10Z" fill="#FFFCFC"/>
<path d="M50 0H60V10H50V0Z" fill="#FFFCFC"/>
<path d="M50 10H60V20H50V10Z" fill="#C8D0D3"/>
<path d="M50 20H60V30H50V20Z" fill="#C8D0D3"/>
<path d="M60 20H70V30H60V20Z" fill="#C8D0D3"/>
<path d="M50 20H40V30H50V20Z" fill="#C8D0D3"/>
<path d="M50 30H60V40H50V30Z" fill="#C8D0D3"/>
<path d="M60 30H70V40H60V30Z" fill="#C8D0D3"/>
<path d="M50 30H40V40H50V30Z" fill="#C8D0D3"/>
<path d="M70 30H80V40H70V30Z" fill="#C8D0D3"/>
<path d="M40 30H30V40H40V30Z" fill="#C8D0D3"/>
<path d="M50 40H60V50H50V40Z" fill="#C8D0D3"/>
<path d="M60 40H70V50H60V40Z" fill="#C8D0D3"/>
<path d="M50 40H40V50H50V40Z" fill="#C8D0D3"/>
<path d="M70 40H80V50H70V40Z" fill="#C8D0D3"/>
<path d="M40 40H30V50H40V40Z" fill="#C8D0D3"/>
<path d="M80 40H90V50H80V40Z" fill="#C8D0D3"/>
<path d="M30 40H20V50H30V40Z" fill="#C8D0D3"/>
<path d="M50 50H60V60H50V50Z" fill="#C8D0D3"/>
<path d="M60 50H70V60H60V50Z" fill="#C8D0D3"/>
<path d="M50 50H40V60H50V50Z" fill="#C8D0D3"/>
<path d="M70 50H80V60H70V50Z" fill="#C8D0D3"/>
<path d="M40 50H30V60H40V50Z" fill="#C8D0D3"/>
<path d="M80 50H90V60H80V50Z" fill="#C8D0D3"/>
<path d="M30 50H20V60H30V50Z" fill="#C8D0D3"/>
<path d="M90 50H100V60H90V50Z" fill="#C8D0D3"/>
<path d="M20 50H10V60H20V50Z" fill="#C8D0D3"/>
<path d="M50 60H60V70H50V60Z" fill="#C8D0D3"/>
<path d="M60 60H70V70H60V60Z" fill="#C8D0D3"/>
<path d="M50 60H40V70H50V60Z" fill="#C8D0D3"/>
<path d="M70 60H80V70H70V60Z" fill="#C8D0D3"/>
<path d="M40 60H30V70H40V60Z" fill="#C8D0D3"/>
<path d="M80 60H90V70H80V60Z" fill="#C8D0D3"/>
<path d="M30 60H20V70H30V60Z" fill="#C8D0D3"/>
<path d="M90 60H100V70H90V60Z" fill="#C8D0D3"/>
<path d="M20 60H10V70H20V60Z" fill="#C8D0D3"/>
<path d="M50 70H60V80H50V70Z" fill="#C8D0D3"/>
<path d="M60 70H70V80H60V70Z" fill="#C8D0D3"/>
<path d="M50 70H40V80H50V70Z" fill="#C8D0D3"/>
<path d="M70 70H80V80H70V70Z" fill="#C8D0D3"/>
<path d="M40 70H30V80H40V70Z" fill="#C8D0D3"/>
<path d="M80 70H90V80H80V70Z" fill="#C8D0D3"/>
<path d="M30 70H20V80H30V70Z" fill="#C8D0D3"/>
<path d="M90 70H100V80H90V70Z" fill="#C8D0D3"/>
<path d="M20 70H10V80H20V70Z" fill="#C8D0D3"/>
<path d="M50 80H60V90H50V80Z" fill="#C8D0D3"/>
<path d="M60 80H70V90H60V80Z" fill="#C8D0D3"/>
<path d="M50 80H40V90H50V80Z" fill="#C8D0D3"/>
<path d="M70 80H80V90H70V80Z" fill="#C8D0D3"/>
<path d="M40 80H30V90H40V80Z" fill="#C8D0D3"/>
<path d="M80 80H90V90H80V80Z" fill="#C8D0D3"/>
<path d="M30 80H20V90H30V80Z" fill="#C8D0D3"/>
<path d="M90 80H100V90H90V80Z" fill="#C8D0D3"/>
<path d="M20 80H10V90H20V80Z" fill="#C8D0D3"/>
<path d="M50 90H60V100H50V90Z" fill="#C8D0D3"/>
<path d="M60 90H70V100H60V90Z" fill="#C8D0D3"/>
<path d="M50 90H40V100H50V90Z" fill="#C8D0D3"/>
<path d="M70 90H80V100H70V90Z" fill="#C8D0D3"/>
<path d="M40 90H30V100H40V90Z" fill="#C8D0D3"/>
<path d="M80 90H90V100H80V90Z" fill="#C8D0D3"/>
<path d="M30 90H20V100H30V90Z" fill="#C8D0D3"/>
<path d="M50 100H60V110H50V100Z" fill="#C8D0D3"/>
<path d="M60 100H70V110H60V100Z" fill="#C8D0D3"/>
<path d="M50 100H40V110H50V100Z" fill="#C8D0D3"/>
<path d="M70 100H80V110H70V100Z" fill="#C8D0D3"/>
<path d="M40 100H30V110H40V100Z" fill="#C8D0D3"/>
<path d="M10 50H20V60H10V50Z" fill="#ABADAD"/>
<path d="M10 50H20V60H10V50Z" fill="#ABADAD"/>
<path d="M20 40H30V50H20V40Z" fill="#ABADAD"/>
<path d="M10 60H20V70H10V60Z" fill="#ABADAD"/>
<path d="M10 70H20V80H10V70Z" fill="#ABADAD"/>
<path d="M10 80H20V90H10V80Z" fill="#ABADAD"/>
<path d="M20 80H30V90H20V80Z" fill="#ABADAD"/>
<path d="M20 90H30V100H20V90Z" fill="#ABADAD"/>
<path d="M30 90H40V100H30V90Z" fill="#ABADAD"/>
<path d="M40 100H50V110H40V100Z" fill="#ABADAD"/>
<path d="M30 100H40V110H30V100Z" fill="#ABADAD"/>
<path d="M50 100H60V110H50V100Z" fill="#ABADAD"/>
<path d="M60 100H70V110H60V100Z" fill="#ABADAD"/>
<path d="M70 40H80V50H70V40Z" fill="#EDF4F7"/>
<path d="M60 30H70V40H60V30Z" fill="#EDF4F7"/>
<path d="M80 50H90V60H80V50Z" fill="#EDF4F7"/>
</g>
<defs>
<clipPath id="clip0_26_651">
<rect width="110" height="120" fill="white"/>
</clipPath>
</defs>
</svg>
